<svg width="22" height="20" viewBox="0 0 22 20" fill="none" xmlns="http://www.w3.org/2000/svg">
<path fill-rule="evenodd" clip-rule="evenodd" d="M20.0001 18.0002C20.255 18.0005 20.5001 18.0981 20.6855 18.273C20.8708 18.448 20.9823 18.6871 20.9973 18.9416C21.0122 19.196 20.9294 19.4466 20.7658 19.642C20.6022 19.8375 20.3702 19.9631 20.1171 19.9932L20.0001 20.0002H2.00009C1.74521 19.9999 1.50006 19.9023 1.31472 19.7273C1.12938 19.5524 1.01785 19.3132 1.00292 19.0588C0.987979 18.8044 1.07076 18.5538 1.23435 18.3584C1.39794 18.1629 1.62999 18.0373 1.88309 18.0072L2.00009 18.0002H20.0001ZM7.10309 1.20519C7.08055 1.04915 7.09485 0.889997 7.14485 0.740475C7.19485 0.590952 7.27916 0.455211 7.39103 0.344117C7.5029 0.233023 7.63923 0.149662 7.78909 0.100707C7.93896 0.0517508 8.09821 0.0385599 8.25409 0.0621899L8.36409 0.0861898L11.1241 0.82519C11.4701 0.91819 11.7581 1.15519 11.9171 1.47119L11.9701 1.59419L14.7801 9.09519L18.4451 10.4122C19.0847 10.6419 19.6545 11.0324 20.0995 11.5461C20.5445 12.0598 20.8498 12.6793 20.9861 13.3452C21.1241 14.0192 20.9521 14.7082 20.4221 15.1732C20.02 15.5267 19.5416 15.7825 19.0243 15.9205C18.5071 16.0586 17.9649 16.0753 17.4401 15.9692L17.2301 15.9192L2.15309 11.8792C1.96069 11.8278 1.78586 11.7251 1.64726 11.5821C1.50865 11.4391 1.41148 11.2611 1.36609 11.0672L1.34609 10.9472L0.717088 5.68219C0.698683 5.52809 0.71604 5.37181 0.767811 5.2255C0.819582 5.07919 0.904375 4.94678 1.01561 4.83855C1.12684 4.73032 1.26152 4.64917 1.40919 4.60142C1.55686 4.55366 1.71354 4.54058 1.86709 4.56319L1.98209 4.58719L4.25209 5.19619C4.61209 5.29219 4.90709 5.54219 5.06209 5.87419L5.11309 6.00319L5.45309 7.00719L7.99509 7.39419L7.10309 1.20519ZM9.29709 2.40619L10.1651 8.43019C10.1861 8.57643 10.1748 8.72551 10.1319 8.86689C10.089 9.00828 10.0156 9.13854 9.91695 9.24849C9.81826 9.35843 9.69664 9.44539 9.56069 9.50322C9.42473 9.56105 9.27774 9.58835 9.13009 9.58319L9.01309 9.57319L4.55709 8.89319C4.39483 8.8686 4.24102 8.80485 4.10894 8.70745C3.97687 8.61005 3.87051 8.48194 3.79909 8.33419L3.75209 8.21919L3.34809 7.02419L2.87609 6.89719L3.25909 10.1062L17.7471 13.9882C18.1911 14.1072 18.6631 14.0122 19.0241 13.7352C18.9607 13.4338 18.8271 13.1516 18.6342 12.9115C18.4414 12.6714 18.1947 12.4801 17.9141 12.3532L17.7691 12.2942L13.6731 10.8222C13.4352 10.737 13.2379 10.5657 13.1201 10.3422L13.0691 10.2262L10.2331 2.65619L9.29709 2.40619Z" fill="#212121"/>
</svg>
