<svg width="32" height="32" viewBox="0 0 32 32" fill="none" xmlns="http://www.w3.org/2000/svg">
<g id="Frame" clip-path="url(#clip0_2846_7226)">
<g id="cellphone_line">
<path id="Vector" d="M22.668 2.66797C23.3407 2.66776 23.9887 2.92184 24.482 3.3793C24.9753 3.83675 25.2775 4.46376 25.328 5.13464L25.3346 5.33464V26.668C25.3348 27.3407 25.0808 27.9887 24.6233 28.482C24.1659 28.9753 23.5388 29.2775 22.868 29.328L22.668 29.3346H9.33464C8.66187 29.3348 8.01388 29.0808 7.52057 28.6233C7.02726 28.1659 6.72509 27.5388 6.67464 26.868L6.66797 26.668V5.33464C6.66776 4.66187 6.92184 4.01388 7.3793 3.52057C7.83675 3.02726 8.46376 2.72509 9.13464 2.67464L9.33464 2.66797H22.668ZM22.668 5.33464H9.33464V26.668H22.668V5.33464ZM16.668 21.3346C16.824 21.3346 16.9751 21.3893 17.095 21.4892C17.2148 21.589 17.2959 21.7278 17.324 21.8813L17.3346 22.0013V23.3346C17.3347 23.4907 17.28 23.6418 17.1801 23.7616C17.0802 23.8815 16.9415 23.9625 16.788 23.9906L16.668 24.0013H15.3346C15.1786 24.0014 15.0275 23.9467 14.9076 23.8468C14.7878 23.7469 14.7067 23.6081 14.6786 23.4546L14.668 23.3346V22.0013C14.6679 21.8453 14.7226 21.6942 14.8225 21.5743C14.9224 21.4544 15.0611 21.3734 15.2146 21.3453L15.3346 21.3346H16.668Z" fill="#212121"/>
</g>
</g>
<defs>
<clipPath id="clip0_2846_7226">
<rect width="32" height="32" fill="white"/>
</clipPath>
</defs>
</svg>
