<svg width="33" height="33" viewBox="0 0 33 33" fill="none" xmlns="http://www.w3.org/2000/svg">
<g id="Frame" clip-path="url(#clip0_2854_8080)">
<g id="calendar_month_line">
<g id="Vector">
<path d="M25.6667 4.75195C26.3739 4.75195 27.0522 5.0329 27.5523 5.533C28.0524 6.0331 28.3333 6.71138 28.3333 7.41862V26.0853C28.3333 26.7925 28.0524 27.4708 27.5523 27.9709C27.0522 28.471 26.3739 28.752 25.6667 28.752H6.99999C6.29275 28.752 5.61447 28.471 5.11438 27.9709C4.61428 27.4708 4.33333 26.7925 4.33333 26.0853V7.41862C4.33333 6.71138 4.61428 6.0331 5.11438 5.533C5.61447 5.0329 6.29275 4.75195 6.99999 4.75195H25.6667ZM25.6667 12.752H6.99999V26.0853H25.6667V12.752ZM11.6667 20.752C12.0203 20.752 12.3594 20.8924 12.6095 21.1425C12.8595 21.3925 13 21.7317 13 22.0853C13 22.4389 12.8595 22.778 12.6095 23.0281C12.3594 23.2781 12.0203 23.4186 11.6667 23.4186H10.3333C9.97971 23.4186 9.64057 23.2781 9.39052 23.0281C9.14047 22.778 9 22.4389 9 22.0853C9 21.7317 9.14047 21.3925 9.39052 21.1425C9.64057 20.8924 9.97971 20.752 10.3333 20.752H11.6667ZM17 20.752C17.3398 20.7523 17.6667 20.8825 17.9138 21.1158C18.1609 21.349 18.3096 21.6679 18.3296 22.0071C18.3495 22.3464 18.2391 22.6805 18.021 22.9411C17.8029 23.2017 17.4935 23.3691 17.156 23.4093L17 23.4186H15.6667C15.3268 23.4182 15 23.2881 14.7528 23.0548C14.5057 22.8215 14.357 22.5027 14.3371 22.1634C14.3172 21.8242 14.4276 21.4901 14.6457 21.2295C14.8638 20.9689 15.1732 20.8014 15.5107 20.7613L15.6667 20.752H17ZM11.6667 15.4186C12.0065 15.419 12.3334 15.5491 12.5805 15.7824C12.8276 16.0157 12.9763 16.3346 12.9962 16.6738C13.0161 17.0131 12.9058 17.3471 12.6876 17.6077C12.4695 17.8683 12.1601 18.0358 11.8227 18.076L11.6667 18.0853H10.3333C9.99349 18.0849 9.66662 17.9548 9.4195 17.7215C9.17239 17.4882 9.02368 17.1693 9.00377 16.8301C8.98385 16.4908 9.09423 16.1568 9.31235 15.8962C9.53047 15.6356 9.83987 15.4681 10.1773 15.428L10.3333 15.4186H11.6667ZM17 15.4186C17.3536 15.4186 17.6928 15.5591 17.9428 15.8091C18.1929 16.0592 18.3333 16.3983 18.3333 16.752C18.3333 17.1056 18.1929 17.4447 17.9428 17.6948C17.6928 17.9448 17.3536 18.0853 17 18.0853H15.6667C15.313 18.0853 14.9739 17.9448 14.7239 17.6948C14.4738 17.4447 14.3333 17.1056 14.3333 16.752C14.3333 16.3983 14.4738 16.0592 14.7239 15.8091C14.9739 15.5591 15.313 15.4186 15.6667 15.4186H17ZM22.3333 15.4186C22.6732 15.419 23 15.5491 23.2472 15.7824C23.4943 16.0157 23.643 16.3346 23.6629 16.6738C23.6828 17.0131 23.5724 17.3471 23.3543 17.6077C23.1362 17.8683 22.8268 18.0358 22.4893 18.076L22.3333 18.0853H21C20.6602 18.0849 20.3333 17.9548 20.0862 17.7215C19.8391 17.4882 19.6903 17.1693 19.6704 16.8301C19.6505 16.4908 19.7609 16.1568 19.979 15.8962C20.1971 15.6356 20.5065 15.4681 20.844 15.428L21 15.4186H22.3333ZM25.6667 7.41862H6.99999V10.0853H25.6667V7.41862Z" fill="#D0841B"/>
<path fill-rule="evenodd" clip-rule="evenodd" d="M25.6667 12.752H6.99999V26.0853H25.6667V12.752ZM12.6095 21.1425C12.3594 20.8924 12.0203 20.752 11.6667 20.752H10.3333C9.97971 20.752 9.64057 20.8924 9.39052 21.1425C9.14047 21.3925 9 21.7317 9 22.0853C9 22.4389 9.14047 22.778 9.39052 23.0281C9.64057 23.2781 9.97971 23.4186 10.3333 23.4186H11.6667C12.0203 23.4186 12.3594 23.2781 12.6095 23.0281C12.8595 22.778 13 22.4389 13 22.0853C13 21.7317 12.8595 21.3925 12.6095 21.1425ZM17.9138 21.1158C17.6667 20.8825 17.3398 20.7523 17 20.752H15.6667L15.5107 20.7613C15.1732 20.8014 14.8638 20.9689 14.6457 21.2295C14.4276 21.4901 14.3172 21.8242 14.3371 22.1634C14.357 22.5027 14.5057 22.8215 14.7528 23.0548C15 23.2881 15.3268 23.4182 15.6667 23.4186H17L17.156 23.4093C17.4935 23.3691 17.8029 23.2017 18.021 22.9411C18.2391 22.6805 18.3495 22.3464 18.3296 22.0071C18.3096 21.6679 18.1609 21.349 17.9138 21.1158ZM12.5805 15.7824C12.3334 15.5491 12.0065 15.419 11.6667 15.4186H10.3333L10.1773 15.428C9.83987 15.4681 9.53047 15.6356 9.31235 15.8962C9.09423 16.1568 8.98385 16.4908 9.00377 16.8301C9.02368 17.1693 9.17239 17.4882 9.4195 17.7215C9.66662 17.9548 9.99349 18.0849 10.3333 18.0853H11.6667L11.8227 18.076C12.1601 18.0358 12.4695 17.8683 12.6876 17.6077C12.9058 17.3471 13.0161 17.0131 12.9962 16.6738C12.9763 16.3346 12.8276 16.0157 12.5805 15.7824ZM17.9428 15.8091C17.6928 15.5591 17.3536 15.4186 17 15.4186H15.6667C15.313 15.4186 14.9739 15.5591 14.7239 15.8091C14.4738 16.0592 14.3333 16.3983 14.3333 16.752C14.3333 17.1056 14.4738 17.4447 14.7239 17.6948C14.9739 17.9448 15.313 18.0853 15.6667 18.0853H17C17.3536 18.0853 17.6928 17.9448 17.9428 17.6948C18.1929 17.4447 18.3333 17.1056 18.3333 16.752C18.3333 16.3983 18.1929 16.0592 17.9428 15.8091ZM23.2472 15.7824C23 15.5491 22.6732 15.419 22.3333 15.4186H21L20.844 15.428C20.5065 15.4681 20.1971 15.6356 19.979 15.8962C19.7609 16.1568 19.6505 16.4908 19.6704 16.8301C19.6903 17.1693 19.8391 17.4882 20.0862 17.7215C20.3333 17.9548 20.6602 18.0849 21 18.0853H22.3333L22.4893 18.076C22.8268 18.0358 23.1362 17.8683 23.3543 17.6077C23.5724 17.3471 23.6828 17.0131 23.6629 16.6738C23.643 16.3346 23.4943 16.0157 23.2472 15.7824Z" fill="#F4E5D0"/>
</g>
</g>
</g>
<defs>
<clipPath id="clip0_2854_8080">
<rect width="32" height="32" fill="white" transform="translate(0.333328 0.751953)"/>
</clipPath>
</defs>
</svg>
