<svg width="33" height="33" viewBox="0 0 33 33" fill="none" xmlns="http://www.w3.org/2000/svg">
<g id="Frame" clip-path="url(#clip0_2854_8060)">
<g id="car_3_line">
<g id="Vector">
<path d="M21.4537 5.91797C22.1133 5.91794 22.7627 6.08106 23.3441 6.39278C23.9254 6.70451 24.4206 7.15517 24.7857 7.70464L24.9257 7.93397L27.5843 12.5846H29.1337C29.2566 12.5846 29.3758 12.6271 29.471 12.7048C29.5663 12.7826 29.6317 12.8908 29.6563 13.0113L29.667 13.118V13.7513C29.6671 13.9644 29.6035 14.1727 29.4842 14.3492C29.3649 14.5258 29.1954 14.6626 28.9977 14.742L28.827 14.7953C29.3266 15.8329 29.549 16.9822 29.4723 18.1313L29.4363 18.514L28.4697 26.2486C28.3936 26.8578 28.1097 27.422 27.6659 27.8461C27.2221 28.2702 26.6456 28.5283 26.0337 28.5766L25.823 28.5846H24.3337C23.6609 28.5848 23.0129 28.3308 22.5196 27.8733C22.0263 27.4158 21.7241 26.7888 21.6737 26.118L21.667 25.918H11.0003C11.0005 26.5907 10.7464 27.2387 10.289 27.732C9.83154 28.2253 9.20453 28.5275 8.53365 28.578L8.33365 28.5846H6.84432C6.23032 28.585 5.635 28.3735 5.15888 27.9858C4.68276 27.5981 4.35502 27.058 4.23099 26.4566L4.19765 26.2486L3.23099 18.5153C3.08814 17.3714 3.24434 16.2101 3.68432 15.1446L3.84032 14.794L3.80832 14.7873C3.60142 14.7357 3.41474 14.6232 3.27237 14.4645C3.13001 14.3057 3.0385 14.1079 3.00965 13.8966L3.00032 13.7513V13.118C3.0003 12.995 3.04275 12.8758 3.1205 12.7806C3.19825 12.6853 3.30652 12.6199 3.42699 12.5953L3.53365 12.5846H5.08432L7.74165 7.93397C8.06898 7.36107 8.53295 6.87804 9.09221 6.52792C9.65147 6.1778 10.2887 5.97147 10.947 5.9273L11.2137 5.91797H21.4537ZM26.6803 16.6326C25.9909 17.3882 25.0345 17.8458 24.0137 17.9086L23.739 17.918H8.92832C8.37559 17.9215 7.82826 17.809 7.3218 17.5876C6.81534 17.3661 6.36104 17.0408 5.98832 16.6326C5.87825 17.0354 5.83191 17.4529 5.85099 17.87L5.87765 18.1833L6.84432 25.918H8.33365V24.5846C8.3337 24.2581 8.45359 23.9429 8.67061 23.6988C8.88762 23.4548 9.18665 23.2988 9.51099 23.2606L9.66699 23.2513H23.0003C23.3269 23.2513 23.6421 23.3712 23.8861 23.5883C24.1302 23.8053 24.2861 24.1043 24.3243 24.4286L24.3337 24.5846V25.918H25.823L26.7897 18.1833C26.8563 17.6606 26.8177 17.134 26.6803 16.6326ZM7.98299 19.1153L11.6403 21.0913C12.1377 21.3606 11.931 22.1166 11.3657 22.094L8.28032 21.97C7.93625 21.9562 7.61086 21.8098 7.37227 21.5616C7.13367 21.3133 7.00039 20.9823 7.00032 20.638V19.7046C7.00026 19.5891 7.0302 19.4756 7.08722 19.3751C7.14424 19.2747 7.22638 19.1908 7.32559 19.1316C7.4248 19.0725 7.53767 19.0401 7.65315 19.0377C7.76862 19.0353 7.88274 19.063 7.98432 19.118L7.98299 19.1153ZM25.6657 19.702V20.6366C25.6659 20.9812 25.5328 21.3125 25.2942 21.5611C25.0555 21.8096 24.7299 21.9562 24.3857 21.97L21.3003 22.0926C20.735 22.1153 20.527 21.3593 21.0257 21.09L24.6817 19.1166C24.7832 19.0617 24.8974 19.034 25.0128 19.0364C25.1283 19.0388 25.2412 19.0712 25.3404 19.1303C25.4396 19.1895 25.5217 19.2734 25.5788 19.3738C25.6358 19.4743 25.6657 19.5865 25.6657 19.702ZM21.4537 8.58464H11.2137C10.9786 8.58471 10.7478 8.64691 10.5446 8.76492C10.3413 8.88293 10.1729 9.05256 10.0563 9.25664L7.77099 13.2566C7.65518 13.4594 7.59464 13.689 7.59542 13.9225C7.59621 14.156 7.6583 14.3852 7.77548 14.5871C7.89266 14.7891 8.06082 14.9567 8.26314 15.0733C8.46545 15.1898 8.69483 15.2512 8.92832 15.2513H23.739C23.9725 15.2512 24.2019 15.1898 24.4042 15.0733C24.6065 14.9567 24.7746 14.7891 24.8918 14.5871C25.009 14.3852 25.0711 14.156 25.0719 13.9225C25.0727 13.689 25.0121 13.4594 24.8963 13.2566L22.611 9.25664C22.4943 9.05237 22.3257 8.88261 22.1222 8.76458C21.9187 8.64656 21.6876 8.58448 21.4523 8.58464H21.4537Z" fill="#D0841B"/>
<path fill-rule="evenodd" clip-rule="evenodd" d="M26.6803 16.6326C25.9909 17.3882 25.0345 17.8458 24.0137 17.9086L23.739 17.918H8.92832C8.37559 17.9215 7.82826 17.809 7.3218 17.5876C6.81534 17.3661 6.36104 17.0408 5.98832 16.6326C5.87825 17.0354 5.83191 17.4529 5.85099 17.87L5.87765 18.1833L6.84432 25.918H8.33365V24.5846C8.3337 24.2581 8.45359 23.9429 8.67061 23.6988C8.88762 23.4548 9.18665 23.2988 9.51099 23.2606L9.66699 23.2513H23.0003C23.3269 23.2513 23.6421 23.3712 23.8861 23.5883C24.1302 23.8053 24.2861 24.1043 24.3243 24.4286L24.3337 24.5846V25.918H25.823L26.7897 18.1833C26.8563 17.6606 26.8177 17.134 26.6803 16.6326ZM11.6403 21.0913L7.98299 19.1153L7.98432 19.118C7.88274 19.063 7.76862 19.0353 7.65315 19.0377C7.53767 19.0401 7.4248 19.0725 7.32559 19.1316C7.22638 19.1908 7.14424 19.2747 7.08722 19.3751C7.0302 19.4756 7.00026 19.5891 7.00032 19.7046V20.638C7.00039 20.9823 7.13367 21.3133 7.37227 21.5616C7.61086 21.8098 7.93625 21.9562 8.28032 21.97L11.3657 22.094C11.931 22.1166 12.1377 21.3606 11.6403 21.0913ZM25.6657 20.6366V19.702C25.6657 19.5865 25.6358 19.4743 25.5788 19.3738C25.5217 19.2734 25.4396 19.1895 25.3404 19.1303C25.2412 19.0712 25.1283 19.0388 25.0128 19.0364C24.8974 19.034 24.7832 19.0617 24.6817 19.1166L21.0257 21.09C20.527 21.3593 20.735 22.1153 21.3003 22.0926L24.3857 21.97C24.7299 21.9562 25.0555 21.8096 25.2942 21.5611C25.5328 21.3125 25.6659 20.9812 25.6657 20.6366Z" fill="#F4E5D0"/>
</g>
</g>
</g>
<defs>
<clipPath id="clip0_2854_8060">
<rect width="32" height="32" fill="white" transform="translate(0.333328 0.583984)"/>
</clipPath>
</defs>
</svg>
