<svg width="19" height="16" viewBox="0 0 19 16" fill="none" xmlns="http://www.w3.org/2000/svg">
<path fill-rule="evenodd" clip-rule="evenodd" d="M17.5 13.6662C17.7124 13.6664 17.9167 13.7477 18.0712 13.8936C18.2256 14.0394 18.3186 14.2386 18.331 14.4507C18.3434 14.6627 18.2745 14.8715 18.1381 15.0344C18.0018 15.1972 17.8084 15.3019 17.5975 15.327L17.5 15.3328H2.50002C2.28762 15.3326 2.08333 15.2513 1.92888 15.1055C1.77443 14.9597 1.68149 14.7604 1.66904 14.5483C1.65659 14.3363 1.72558 14.1275 1.86191 13.9647C1.99823 13.8018 2.19161 13.6971 2.40252 13.672L2.50002 13.6662H17.5ZM6.05169 0.142845C6.19136 0.105458 6.3373 0.09756 6.48019 0.119655C6.62309 0.141749 6.75982 0.193352 6.88169 0.271178L6.98335 0.345345L12.1367 4.58784L15.33 4.01118C15.8874 3.91052 16.4613 3.95501 16.9965 4.14036C17.5317 4.32572 18.0101 4.6457 18.3859 5.06951C18.7667 5.49868 18.9284 6.06701 18.74 6.62368C18.5971 7.04623 18.3585 7.43005 18.0428 7.74518C17.7271 8.06031 17.3428 8.29822 16.92 8.44034L16.7475 8.49284L4.18335 11.8595C4.02468 11.902 3.85751 11.901 3.69932 11.8567C3.54114 11.8125 3.39777 11.7265 3.28419 11.6078L3.21252 11.5228L0.565019 7.98451C0.487738 7.88135 0.435184 7.76181 0.411411 7.63512C0.387638 7.50843 0.393281 7.37798 0.427905 7.25381C0.462529 7.12965 0.525208 7.0151 0.611109 6.91899C0.697011 6.82289 0.803838 6.7478 0.923353 6.69951L1.02169 6.66701L2.91335 6.16034C3.06019 6.12098 3.21386 6.11424 3.36358 6.14058C3.5133 6.16693 3.65544 6.22572 3.78002 6.31284L3.87169 6.38368L4.53502 6.96701L6.53085 6.18701L3.30835 2.09284C3.22736 1.98994 3.1715 1.86956 3.14521 1.74128C3.11892 1.61299 3.12292 1.48034 3.1569 1.35387C3.19089 1.22741 3.25391 1.11062 3.34096 1.01279C3.42801 0.914959 3.53669 0.838792 3.65835 0.790344L3.75252 0.759511L6.05169 0.142845ZM6.17169 1.83618L5.39252 2.04451L8.52835 6.03118C8.85585 6.44701 8.72002 7.04784 8.26752 7.29118L8.17335 7.33534L4.67335 8.70201C4.54613 8.75175 4.40871 8.76978 4.27296 8.75453C4.13721 8.73929 4.00721 8.69123 3.89419 8.61451L3.81169 8.55034L3.02252 7.85618L2.63002 7.96201L4.24252 10.1178L16.3167 6.88284C16.6867 6.78368 16.9875 6.51868 17.1334 6.16784C16.9632 5.97808 16.7509 5.83079 16.5136 5.73774C16.2763 5.6447 16.0205 5.60849 15.7667 5.63201L15.6275 5.65118L12.0575 6.29618C11.8502 6.33364 11.6364 6.29201 11.4584 6.17951L11.3734 6.11701L6.17335 1.83618H6.17169Z" fill="#212121"/>
</svg>
