<svg width="24" height="24" viewBox="0 0 24 24" fill="none" xmlns="http://www.w3.org/2000/svg">
<g id="Group">
<path id="Vector" fill-rule="evenodd" clip-rule="evenodd" d="M12.7083 15.7064C12.5208 15.8938 12.2665 15.9992 12.0013 15.9992C11.7362 15.9992 11.4818 15.8938 11.2943 15.7064L5.63732 10.0494C5.54181 9.95712 5.46563 9.84678 5.41322 9.72477C5.36081 9.60277 5.33322 9.47155 5.33207 9.33877C5.33092 9.20599 5.35622 9.07431 5.4065 8.95141C5.45678 8.82852 5.53103 8.71686 5.62492 8.62297C5.71882 8.52908 5.83047 8.45483 5.95337 8.40454C6.07626 8.35426 6.20794 8.32896 6.34072 8.33012C6.4735 8.33127 6.60472 8.35886 6.72672 8.41126C6.84873 8.46367 6.95907 8.53986 7.05132 8.63537L12.0013 13.5854L16.9513 8.63537C17.1399 8.45321 17.3925 8.35241 17.6547 8.35469C17.9169 8.35697 18.1677 8.46214 18.3531 8.64755C18.5385 8.83296 18.6437 9.08377 18.646 9.34597C18.6483 9.60816 18.5475 9.86076 18.3653 10.0494L12.7083 15.7064Z" fill="#212121"/>
</g>
</svg>
