<svg width="20" height="20" viewBox="0 0 20 20" fill="none" xmlns="http://www.w3.org/2000/svg">
<g id="edit" clip-path="url(#clip0_2854_8700)">
<path id="Vector" d="M9.16663 3.33417H3.33329C2.89127 3.33417 2.46734 3.50977 2.15478 3.82233C1.84222 4.13489 1.66663 4.55881 1.66663 5.00084V16.6675C1.66663 17.1095 1.84222 17.5335 2.15478 17.846C2.46734 18.1586 2.89127 18.3342 3.33329 18.3342H15C15.442 18.3342 15.8659 18.1586 16.1785 17.846C16.491 17.5335 16.6666 17.1095 16.6666 16.6675V10.8342M15.4166 2.08417C15.7481 1.75265 16.1978 1.56641 16.6666 1.56641C17.1355 1.56641 17.5851 1.75265 17.9166 2.08417C18.2481 2.41569 18.4344 2.86533 18.4344 3.33417C18.4344 3.80301 18.2481 4.25265 17.9166 4.58417L9.99996 12.5008L6.66663 13.3342L7.49996 10.0008L15.4166 2.08417Z" stroke="#D0841B" stroke-width="1.66667" stroke-linecap="round" stroke-linejoin="round"/>
</g>
<defs>
<clipPath id="clip0_2854_8700">
<rect width="20" height="20" fill="white"/>
</clipPath>
</defs>
</svg>
