<svg width="32" height="32" viewBox="0 0 32 32" fill="none" xmlns="http://www.w3.org/2000/svg">
<g id="Frame" clip-path="url(#clip0_2362_22580)">
<g id="invite_line">
<path id="Vector" fill-rule="evenodd" clip-rule="evenodd" d="M22.668 4C23.6882 3.99994 24.67 4.38977 25.4123 5.08971C26.1546 5.78966 26.6014 6.74681 26.6613 7.76533L26.668 8V13.8L27.46 13.448C28.2786 13.084 29.2226 13.648 29.3266 14.512L29.3346 14.6667V25.3333C29.3348 26.0061 29.0808 26.6541 28.6233 27.1474C28.1659 27.6407 27.5388 27.9429 26.868 27.9933L26.668 28H5.33464C4.66187 28.0002 4.01388 27.7461 3.52057 27.2887C3.02726 26.8312 2.72509 26.2042 2.67464 25.5333L2.66797 25.3333V14.6667C2.66797 13.7707 3.56797 13.1373 4.3973 13.3933L4.54397 13.448L5.33464 13.8V8C5.33458 6.97972 5.7244 5.99798 6.42435 5.25565C7.12429 4.51332 8.08144 4.06652 9.09997 4.00667L9.33463 4H22.668ZM26.668 16.7187L17.084 20.9773C16.7431 21.1288 16.3743 21.207 16.0013 21.207C15.6283 21.207 15.2595 21.1288 14.9186 20.9773L5.33464 16.72V25.3333H26.668V16.7187ZM22.668 6.66667H9.33463C8.98101 6.66667 8.64187 6.80714 8.39183 7.05719C8.14178 7.30724 8.0013 7.64638 8.0013 8V14.9853L16.0013 18.5413L24.0013 14.9853V8C24.0013 7.64638 23.8608 7.30724 23.6108 7.05719C23.3607 6.80714 23.0216 6.66667 22.668 6.66667ZM16.0013 10.6667C16.3411 10.667 16.668 10.7972 16.9151 11.0305C17.1622 11.2638 17.3109 11.5826 17.3309 11.9219C17.3508 12.2611 17.2404 12.5952 17.0223 12.8558C16.8042 13.1164 16.4948 13.2839 16.1573 13.324L16.0013 13.3333H13.3346C12.9948 13.333 12.6679 13.2028 12.4208 12.9695C12.1737 12.7362 12.025 12.4174 12.0051 12.0781C11.9852 11.7389 12.0955 11.4048 12.3137 11.1442C12.5318 10.8836 12.8412 10.7161 13.1786 10.676L13.3346 10.6667H16.0013Z" fill="#212121"/>
</g>
</g>
<defs>
<clipPath id="clip0_2362_22580">
<rect width="32" height="32" fill="white"/>
</clipPath>
</defs>
</svg>
