<svg width="33" height="33" viewBox="0 0 33 33" fill="none" xmlns="http://www.w3.org/2000/svg">
<g id="Frame">
<path id="Vector" opacity="0.2" d="M10.07 8.43555L16.5313 10.0505C16.3739 12.2629 16.0395 14.4591 15.5313 16.618C15.3969 17.1271 15.1633 17.6046 14.844 18.0232C14.5246 18.4419 14.1258 18.7933 13.6703 19.0574C13.2148 19.3215 12.7117 19.4931 12.1897 19.5623C11.6678 19.6316 11.1373 19.5971 10.6287 19.4609C10.1202 19.3246 9.64348 19.0893 9.22605 18.7684C8.80861 18.4476 8.45862 18.0475 8.19616 17.591C7.9337 17.1346 7.76394 16.6308 7.6966 16.1087C7.62926 15.5865 7.66568 15.0561 7.80376 14.548C8.38481 12.4501 9.14295 10.4052 10.07 8.43555ZM25.5288 17.548C24.9229 15.3709 24.1282 13.2508 23.1538 11.2118L16.7275 12.8193C16.8688 14.8643 17.1738 17.278 17.8013 19.618C17.9356 20.1271 18.1692 20.6046 18.4886 21.0232C18.8079 21.4419 19.2068 21.7933 19.6622 22.0574C20.1177 22.3215 20.6208 22.4931 21.1428 22.5623C21.6647 22.6316 22.1952 22.5971 22.7038 22.4609C23.2124 22.3246 23.689 22.0893 24.1065 21.7684C24.5239 21.4476 24.8739 21.0475 25.1364 20.591C25.3988 20.1346 25.5686 19.6308 25.6359 19.1087C25.7033 18.5865 25.6668 18.0561 25.5288 17.548Z" fill="#D0841B"/>
<path id="Vector_2" d="M27.4079 27.3273L25.2017 27.9186L23.8992 23.0573C24.9294 22.5414 25.7502 21.686 26.2231 20.6354C26.6961 19.5847 26.7923 18.4031 26.4954 17.2898C24.9204 11.4148 21.6479 6.26234 21.5092 6.04609C21.3963 5.86962 21.2308 5.73306 21.0362 5.65568C20.8415 5.5783 20.6274 5.56402 20.4242 5.61484L17.6917 6.29859C17.6917 5.26734 17.6692 4.61984 17.6654 4.53859C17.6555 4.32377 17.5765 4.11789 17.4403 3.95149C17.304 3.78508 17.1178 3.66703 16.9092 3.61484L12.9092 2.61484C12.7059 2.56402 12.4919 2.5783 12.2972 2.65568C12.1025 2.73306 11.9371 2.86962 11.8242 3.04609C11.6854 3.26234 8.41293 8.41234 6.83793 14.2961C6.5411 15.4094 6.63727 16.591 7.11021 17.6416C7.58316 18.6923 8.40396 19.5477 9.43418 20.0636L8.13168 24.9186L5.92543 24.3273C5.66916 24.2587 5.39613 24.2947 5.1664 24.4274C4.93667 24.5601 4.76905 24.7786 4.70043 25.0348C4.6318 25.2911 4.66779 25.5641 4.80047 25.7939C4.93316 26.0236 5.15166 26.1912 5.40793 26.2598L11.4079 27.8673C11.4924 27.8895 11.5793 27.9009 11.6667 27.9011C11.9095 27.9014 12.1441 27.8133 12.3268 27.6533C12.5094 27.4933 12.6276 27.2723 12.6593 27.0316C12.691 26.7908 12.634 26.5468 12.4989 26.345C12.3639 26.1432 12.16 25.9974 11.9254 25.9348L10.0629 25.4348L11.3654 20.5736C11.4667 20.5798 11.5667 20.5836 11.6667 20.5836C12.6588 20.5808 13.6277 20.2838 14.451 19.7302C15.2743 19.1766 15.9148 18.3913 16.2917 17.4736C16.4392 18.2698 16.6167 19.0761 16.8304 19.8761C17.1166 20.94 17.7455 21.88 18.6198 22.5504C19.494 23.2209 20.5649 23.5844 21.6667 23.5848C21.7667 23.5848 21.8667 23.5848 21.9679 23.5748L23.2704 28.4361L21.4079 28.9361C21.1744 28.9996 20.9718 29.1456 20.8377 29.347C20.7036 29.5485 20.6471 29.7917 20.6787 30.0317C20.7103 30.2716 20.8278 30.4919 21.0095 30.6518C21.1912 30.8117 21.4247 30.9003 21.6667 30.9011C21.754 30.9009 21.841 30.8895 21.9254 30.8673L27.9254 29.2598C28.1817 29.1912 28.4002 29.0236 28.5329 28.7939C28.6656 28.5641 28.7016 28.2911 28.6329 28.0348C28.5643 27.7786 28.3967 27.5601 28.167 27.4274C27.9372 27.2947 27.6642 27.2587 27.4079 27.3273ZM20.1942 7.73359C20.5417 8.32109 21.0979 9.30109 21.7192 10.5411L17.6667 11.5561C17.6142 10.3061 17.6192 9.27484 17.6354 8.58234C17.6354 8.51234 17.6417 8.44234 17.6454 8.37234L20.1942 7.73359ZM13.1392 4.73359L15.6854 5.36984C15.6929 5.90484 15.6854 6.70359 15.6592 7.67859C15.6517 7.82984 15.6392 8.07734 15.6304 8.40859C15.6304 8.53359 15.6179 8.65859 15.6104 8.78359L11.5029 7.76359C12.1667 6.41859 12.7717 5.35484 13.1392 4.73359ZM14.5629 16.3698C14.348 17.1292 13.8424 17.7733 13.1559 18.1625C12.4693 18.5517 11.657 18.6547 10.8951 18.4491C10.1331 18.2436 9.4828 17.7461 9.08511 17.0644C8.68742 16.3827 8.57436 15.5718 8.77043 14.8073C9.26281 13.0294 9.88962 11.2915 10.6454 9.60859L15.4679 10.8136C15.2996 12.685 14.9972 14.5418 14.5629 16.3698ZM18.7679 19.3598C18.2782 17.4663 17.9516 15.5342 17.7917 13.5848L22.5929 12.3848C23.3908 14.1382 24.0491 15.9517 24.5617 17.8086C24.6702 18.1912 24.7016 18.5915 24.654 18.9863C24.6064 19.3811 24.4808 19.7625 24.2845 20.1083C24.0882 20.4541 23.825 20.7575 23.5104 21.0007C23.1958 21.2439 22.836 21.4222 22.4519 21.5251C22.0678 21.628 21.667 21.6535 21.273 21.6001C20.8789 21.5468 20.4994 21.4156 20.1565 21.2142C19.8135 21.0129 19.5141 20.7453 19.2755 20.4272C19.0369 20.1091 18.864 19.7467 18.7667 19.3611L18.7679 19.3598ZM23.7679 6.03234C23.7091 5.91483 23.674 5.78686 23.6646 5.65577C23.6552 5.52467 23.6718 5.39301 23.7134 5.26833C23.7549 5.14364 23.8207 5.02838 23.9068 4.92911C23.993 4.82985 24.0978 4.74855 24.2154 4.68984L26.2154 3.68984C26.333 3.63108 26.4609 3.59604 26.592 3.58672C26.7231 3.57741 26.8547 3.594 26.9794 3.63555C27.104 3.67711 27.2193 3.74281 27.3186 3.82891C27.4178 3.915 27.4992 4.01981 27.5579 4.13734C27.6167 4.25488 27.6517 4.38283 27.6611 4.51391C27.6704 4.64498 27.6538 4.77661 27.6122 4.90127C27.5707 5.02594 27.505 5.14119 27.4189 5.24047C27.3328 5.33974 27.228 5.42108 27.1104 5.47984L25.1104 6.47984C24.9929 6.5387 24.8649 6.57381 24.7339 6.58317C24.6028 6.59252 24.4711 6.57595 24.3464 6.53439C24.2217 6.49283 24.1065 6.42709 24.0072 6.34095C23.9079 6.2548 23.8266 6.14994 23.7679 6.03234ZM29.6667 9.58484C29.6667 9.85006 29.5613 10.1044 29.3738 10.292C29.1863 10.4795 28.9319 10.5848 28.6667 10.5848H26.6667C26.4015 10.5848 26.1471 10.4795 25.9596 10.292C25.772 10.1044 25.6667 9.85006 25.6667 9.58484C25.6667 9.31963 25.772 9.06527 25.9596 8.87774C26.1471 8.6902 26.4015 8.58484 26.6667 8.58484H28.6667C28.9319 8.58484 29.1863 8.6902 29.3738 8.87774C29.5613 9.06527 29.6667 9.31963 29.6667 9.58484ZM4.77168 3.13734C4.83038 3.01975 4.91169 2.91489 5.01095 2.82874C5.11021 2.7426 5.22548 2.67686 5.35016 2.6353C5.47485 2.59374 5.60651 2.57716 5.7376 2.58652C5.8687 2.59588 5.99666 2.63099 6.11418 2.68984L8.11418 3.68984C8.23171 3.74861 8.33652 3.82995 8.42262 3.92922C8.50871 4.02849 8.57442 4.14375 8.61597 4.26841C8.65752 4.39308 8.67412 4.5247 8.6648 4.65578C8.65549 4.78685 8.62045 4.91481 8.56168 5.03234C8.50291 5.14988 8.42157 5.25468 8.3223 5.34078C8.22303 5.42688 8.10777 5.49258 7.98311 5.53413C7.73134 5.61806 7.45655 5.59853 7.21918 5.47984L5.21918 4.47984C5.10159 4.42114 4.99672 4.33984 4.91058 4.24057C4.82443 4.14131 4.7587 4.02604 4.71714 3.90136C4.67557 3.77667 4.659 3.64502 4.66836 3.51392C4.67772 3.38283 4.71283 3.25486 4.77168 3.13734ZM5.66668 9.58484H3.66668C3.40146 9.58484 3.14711 9.47949 2.95957 9.29195C2.77204 9.10441 2.66668 8.85006 2.66668 8.58484C2.66668 8.31963 2.77204 8.06527 2.95957 7.87774C3.14711 7.6902 3.40146 7.58484 3.66668 7.58484H5.66668C5.9319 7.58484 6.18625 7.6902 6.37379 7.87774C6.56132 8.06527 6.66668 8.31963 6.66668 8.58484C6.66668 8.85006 6.56132 9.10441 6.37379 9.29195C6.18625 9.47949 5.9319 9.58484 5.66668 9.58484Z" fill="#D0841B"/>
</g>
</svg>
