<svg width="25" height="24" viewBox="0 0 25 24" fill="none" xmlns="http://www.w3.org/2000/svg">
<rect width="25" height="24" fill="#EDEDED"/>
<path d="M-206 -4053C-206 -4054.1 -205.105 -4055 -204 -4055H18687C18688.1 -4055 18689 -4054.1 18689 -4053V7092C18689 7093.1 18688.1 7094 18687 7094H-204C-205.104 7094 -206 7093.1 -206 7092V-4053Z" fill="#444444"/>
<path d="M-204 -4054H18687V-4056H-204V-4054ZM18688 -4053V7092H18690V-4053H18688ZM18687 7093H-204V7095H18687V7093ZM-205 7092V-4053H-207V7092H-205ZM-204 7093C-204.552 7093 -205 7092.55 -205 7092H-207C-207 7093.66 -205.657 7095 -204 7095V7093ZM18688 7092C18688 7092.55 18687.6 7093 18687 7093V7095C18688.7 7095 18690 7093.66 18690 7092H18688ZM18687 -4054C18687.6 -4054 18688 -4053.55 18688 -4053H18690C18690 -4054.66 18688.7 -4056 18687 -4056V-4054ZM-204 -4056C-205.657 -4056 -207 -4054.66 -207 -4053H-205C-205 -4053.55 -204.552 -4054 -204 -4054V-4056Z" fill="white" fill-opacity="0.1"/>
<g clip-path="url(#clip0_0_1)">
<rect width="390" height="1764" transform="translate(-58 -1685)" fill="white"/>
<rect x="-57.5" y="-11.5" width="389" height="90" fill="#FDFDFD"/>
<rect x="-57.5" y="-11.5" width="389" height="90" stroke="#F2F2F2"/>
<mask id="path-4-inside-1_0_1" fill="white">
<path d="M-58 -12H332V58H-58V-12Z"/>
</mask>
<path d="M-58 -11H332V-13H-58V-11Z" fill="black" fill-opacity="0.05" mask="url(#path-4-inside-1_0_1)"/>
<path d="M21.3333 11.2502V20.2502C21.3333 20.4492 21.2543 20.6399 21.1137 20.7806C20.973 20.9212 20.7823 21.0002 20.5833 21.0002H4.08334C3.88443 21.0002 3.69366 20.9212 3.55301 20.7806C3.41236 20.6399 3.33334 20.4492 3.33334 20.2502V11.2502C3.33264 11.053 3.37115 10.8577 3.44663 10.6755C3.52211 10.4933 3.63306 10.3279 3.77303 10.189L11.273 2.68899C11.5543 2.4079 11.9357 2.25 12.3333 2.25C12.731 2.25 13.1124 2.4079 13.3937 2.68899L20.8937 10.189C21.0336 10.3279 21.1446 10.4933 21.22 10.6755C21.2955 10.8577 21.334 11.053 21.3333 11.2502Z" fill="#D0841B"/>
</g>
<defs>
<clipPath id="clip0_0_1">
<rect width="390" height="1764" fill="white" transform="translate(-58 -1685)"/>
</clipPath>
</defs>
</svg>
