<svg width="24" height="24" viewBox="0 0 24 24" fill="none" xmlns="http://www.w3.org/2000/svg">
<rect width="24" height="24" fill="#EDEDED"/>
<g id="Prototype Adjustment for Demo">
<path d="M-331 -4053C-331 -4054.1 -330.105 -4055 -329 -4055H18562C18563.1 -4055 18564 -4054.1 18564 -4053V7092C18564 7093.1 18563.1 7094 18562 7094H-329C-330.104 7094 -331 7093.1 -331 7092V-4053Z" fill="#444444"/>
<path d="M-329 -4054H18562V-4056H-329V-4054ZM18563 -4053V7092H18565V-4053H18563ZM18562 7093H-329V7095H18562V7093ZM-330 7092V-4053H-332V7092H-330ZM-329 7093C-329.552 7093 -330 7092.55 -330 7092H-332C-332 7093.66 -330.657 7095 -329 7095V7093ZM18563 7092C18563 7092.55 18562.6 7093 18562 7093V7095C18563.7 7095 18565 7093.66 18565 7092H18563ZM18562 -4054C18562.6 -4054 18563 -4053.55 18563 -4053H18565C18565 -4054.66 18563.7 -4056 18562 -4056V-4054ZM-329 -4056C-330.657 -4056 -332 -4054.66 -332 -4053H-330C-330 -4053.55 -329.552 -4054 -329 -4054V-4056Z" fill="white" fill-opacity="0.1"/>
<g id="11" clip-path="url(#clip0_0_1)">
<rect width="390" height="1764" transform="translate(-183 -1685)" fill="white"/>
<g id="Frame 1000010032">
<rect x="-182.5" y="-11.5" width="389" height="90" fill="#FDFDFD"/>
<rect x="-182.5" y="-11.5" width="389" height="90" stroke="#F2F2F2"/>
<g id="Frame 1000003020">
<mask id="path-4-inside-1_0_1" fill="white">
<path d="M-183 -12H207V58H-183V-12Z"/>
</mask>
<path d="M-183 -11H207V-13H-183V-11Z" fill="black" fill-opacity="0.05" mask="url(#path-4-inside-1_0_1)"/>
<g id="Frame 1000003021">
<g id="Frame" clip-path="url(#clip1_0_1)">
<g id="coupon_fill">
<path id="Vector" d="M19 4C19.7652 3.99996 20.5015 4.29233 21.0583 4.81728C21.615 5.34224 21.9501 6.06011 21.995 6.824L22 7V8.817C21.9977 9.08708 21.9249 9.35189 21.7888 9.58518C21.6527 9.81847 21.458 10.0121 21.224 10.147L21.117 10.205C20.7935 10.3638 20.5189 10.6071 20.3222 10.9091C20.1255 11.2111 20.0142 11.5607 19.9998 11.9208C19.9855 12.2809 20.0687 12.6382 20.2407 12.9549C20.4127 13.2716 20.6671 13.536 20.977 13.72L21.117 13.795C21.55 14.009 21.937 14.451 21.993 15.035L22 15.183V17C22 17.7652 21.7077 18.5015 21.1827 19.0583C20.6578 19.615 19.9399 19.9501 19.176 19.995L19 20H4.99999C4.23478 20 3.49848 19.7077 2.94173 19.1827C2.38499 18.6578 2.04988 17.9399 2.00499 17.176L1.99999 17V15.183C1.99999 14.577 2.35199 14.105 2.77599 13.853L2.88299 13.795C3.20652 13.6362 3.48113 13.3929 3.67779 13.0909C3.87444 12.7889 3.98582 12.4393 4.00017 12.0792C4.01451 11.7191 3.93128 11.3618 3.75927 11.0451C3.58726 10.7284 3.33287 10.464 3.02299 10.28L2.88299 10.205C2.44999 9.991 2.06299 9.549 2.00699 8.965L1.99999 8.818V7C1.99995 6.23479 2.29232 5.49849 2.81728 4.94174C3.34223 4.38499 4.0601 4.04989 4.82399 4.005L4.99999 4H19ZM9.99999 9C9.73478 9 9.48042 9.10536 9.29289 9.29289C9.10535 9.48043 8.99999 9.73478 8.99999 10V14C8.99999 14.2652 9.10535 14.5196 9.29289 14.7071C9.48042 14.8946 9.73478 15 9.99999 15C10.2652 15 10.5196 14.8946 10.7071 14.7071C10.8946 14.5196 11 14.2652 11 14V10C11 9.73478 10.8946 9.48043 10.7071 9.29289C10.5196 9.10536 10.2652 9 9.99999 9Z" fill="#9B9B9B"/>
</g>
</g>
</g>
</g>
</g>
</g>
</g>
<defs>
<clipPath id="clip0_0_1">
<rect width="390" height="1764" fill="white" transform="translate(-183 -1685)"/>
</clipPath>
<clipPath id="clip1_0_1">
<rect width="24" height="24" fill="white"/>
</clipPath>
</defs>
</svg>
