<svg width="20" height="20" viewBox="0 0 20 20" fill="none" xmlns="http://www.w3.org/2000/svg">
<g id="Frame" clip-path="url(#clip0_4649_7912)">
<g id="seat_line">
<path id="Vector" fill-rule="evenodd" clip-rule="evenodd" d="M2.88788 13.9538C3.29955 13.1555 4.17038 12.6205 5.22455 12.753C6.23621 12.8797 7.38121 13.0697 8.53288 13.358C10.4054 13.8263 12.017 14.7747 13.127 15.5697L13.4604 15.8155L13.6137 15.9322L13.8937 16.1538L14.1362 16.3538L14.4254 16.6055C15.1287 17.2313 14.6504 18.2538 13.8554 18.3288L13.762 18.333H6.59955C6.01028 18.333 5.42773 18.2079 4.89034 17.9662C4.35296 17.7244 3.87296 17.3714 3.48205 16.9305L3.34621 16.7688L3.17955 16.5613C2.53538 15.7555 2.48121 14.7422 2.88788 13.9538ZM5.01788 14.4063C4.68455 14.3647 4.47371 14.5155 4.36871 14.718C4.31355 14.8294 4.28867 14.9533 4.29657 15.0773C4.30447 15.2014 4.34487 15.3212 4.41371 15.4247L4.48121 15.5205L4.64788 15.7288C4.86504 16.0001 5.13639 16.2232 5.44459 16.3837C5.7528 16.5443 6.09109 16.6388 6.43788 16.6613L6.59955 16.6663H11.7837C10.8254 16.0222 9.55288 15.3305 8.12871 14.9747C7.10396 14.7239 6.06518 14.5335 5.01788 14.4063ZM15.8312 1.66632C16.3479 1.66632 16.7262 1.94799 16.9645 2.25299C17.192 2.54216 17.3395 2.90299 17.442 3.24966C17.6504 3.95216 17.7479 4.85549 17.7854 5.75716C17.8162 6.51632 17.8054 7.32049 17.7662 8.07049L17.7312 8.62049C17.6729 9.42716 17.5812 10.133 17.4779 10.5972C17.0337 12.5955 16.257 13.803 15.3879 14.4613C14.5554 15.0913 13.5904 15.228 12.9587 14.9113C12.6829 14.7738 12.4154 14.5263 12.1937 14.2697C11.9272 13.9566 11.7028 13.6101 11.5262 13.2388C11.1379 12.4263 10.8987 11.328 11.2904 10.153C11.5329 9.42549 12.0004 8.97216 12.412 8.63299L12.677 8.41966C13.1462 8.04632 13.5362 7.72633 13.8354 7.12716C13.9129 6.97216 13.9695 6.66049 13.9829 6.13132L13.9854 5.87882L13.9787 5.25716C13.9745 5.00716 13.9704 4.74299 13.9729 4.48716C13.9787 3.94549 14.0129 3.30382 14.2229 2.78132C14.3345 2.50382 14.5129 2.21382 14.8037 1.99382C15.1007 1.77437 15.462 1.65923 15.8312 1.66632ZM15.7504 3.45799C15.6812 3.66799 15.6445 4.00799 15.6395 4.50382V4.73882L15.647 5.31299C15.6512 5.59216 15.6554 5.88632 15.6487 6.17132C15.6354 6.70632 15.5854 7.35466 15.3262 7.87216C14.9637 8.59882 14.4987 9.06966 14.0845 9.42216L13.8429 9.62216L13.7154 9.72299C13.2195 10.118 12.9912 10.3205 12.872 10.6797C12.652 11.338 12.772 11.9822 13.0304 12.5197C13.1579 12.7888 13.3137 13.0155 13.4579 13.183C13.5245 13.2613 13.582 13.3172 13.6237 13.3547L13.6862 13.408L13.7654 13.4047C13.8762 13.3955 14.0937 13.3513 14.382 13.133C14.8379 12.7872 15.462 11.9872 15.8512 10.2355C15.8862 10.0763 15.9212 9.87216 15.9537 9.63466L16.0004 9.25382C16.0087 9.18716 16.0154 9.11799 16.022 9.04716L16.0612 8.60549L16.0937 8.13216L16.107 7.88632L16.1262 7.38132C16.1422 6.8628 16.1402 6.34388 16.1204 5.82549C16.0845 4.96966 15.9937 4.22799 15.8437 3.72299C15.8179 3.63261 15.7867 3.54468 15.7504 3.45799Z" fill="#212121"/>
</g>
</g>
<defs>
<clipPath id="clip0_4649_7912">
<rect width="20" height="20" fill="white"/>
</clipPath>
</defs>
</svg>
