<svg width="33" height="33" viewBox="0 0 33 33" fill="none" xmlns="http://www.w3.org/2000/svg">
<g id="Frame" clip-path="url(#clip0_2854_8094)">
<g id="unlock_line">
<g id="Vector">
<path d="M16.6657 3.41797C18.1204 3.41797 19.4884 3.8073 20.6657 4.48997C20.825 4.57332 20.9659 4.68805 21.0797 4.82724C21.1936 4.96643 21.2781 5.12722 21.3282 5.29992C21.3783 5.47262 21.393 5.65368 21.3713 5.83219C21.3496 6.0107 21.292 6.18299 21.202 6.33867C21.112 6.49436 20.9915 6.63023 20.8476 6.73812C20.7038 6.84601 20.5395 6.92368 20.3649 6.96646C20.1902 7.00925 20.0087 7.01626 19.8313 6.98707C19.6538 6.95788 19.4841 6.89311 19.3324 6.79664C18.5214 6.32843 17.6015 6.08199 16.6651 6.0821C15.7287 6.08222 14.8088 6.32887 13.9979 6.79727C13.1871 7.26567 12.5139 7.93929 12.046 8.75042C11.578 9.56154 11.3319 10.4816 11.3324 11.418L25.999 11.4193C26.7063 11.4193 27.3846 11.7003 27.8847 12.2004C28.3848 12.7004 28.6657 13.3787 28.6657 14.086V27.4193C28.6657 28.1265 28.3848 28.8048 27.8847 29.3049C27.3846 29.805 26.7063 30.086 25.999 30.086H7.33237C6.62513 30.086 5.94685 29.805 5.44675 29.3049C4.94665 28.8048 4.6657 28.1265 4.6657 27.4193V14.0846C4.6657 13.3774 4.94665 12.6991 5.44675 12.199C5.94685 11.6989 6.62513 11.418 7.33237 11.418H8.6657C8.6657 9.29624 9.50856 7.26141 11.0088 5.76111C12.5091 4.26082 14.544 3.41797 16.6657 3.41797ZM25.999 14.0846H7.33237V27.418H25.999V14.0846ZM16.6657 16.7513C17.2345 16.7515 17.7883 16.9335 18.2463 17.2708C18.7043 17.6081 19.0424 18.0831 19.2113 18.6262C19.3802 19.1693 19.3709 19.7522 19.185 20.2898C18.999 20.8273 18.6461 21.2913 18.1777 21.614L17.999 21.7273V23.418C17.9987 23.7578 17.8685 24.0847 17.6352 24.3318C17.4019 24.5789 17.0831 24.7276 16.7438 24.7475C16.4046 24.7674 16.0705 24.6571 15.8099 24.4389C15.5493 24.2208 15.3818 23.9114 15.3417 23.574L15.3324 23.418V21.7273C14.824 21.4338 14.4267 20.9807 14.2021 20.4384C13.9775 19.8961 13.9381 19.2948 14.09 18.7278C14.242 18.1608 14.5767 17.6597 15.0424 17.3024C15.5081 16.945 16.0787 16.7513 16.6657 16.7513ZM27.223 7.44597L28.511 7.79264C28.8394 7.89544 29.1154 8.12124 29.2811 8.4228C29.4469 8.72437 29.4897 9.07834 29.4005 9.4107C29.3113 9.74306 29.097 10.0281 28.8025 10.2061C28.508 10.3841 28.1561 10.4414 27.8204 10.366L26.5337 10.022C26.1936 9.92925 25.904 9.70559 25.7283 9.39993C25.5527 9.09426 25.5052 8.73147 25.5964 8.39091C25.6875 8.05034 25.9098 7.75974 26.2146 7.58265C26.5195 7.40557 26.8821 7.35642 27.223 7.44597ZM25.5097 3.53797C25.6789 3.5833 25.8374 3.66151 25.9763 3.76813C26.1153 3.87475 26.2318 4.0077 26.3194 4.15937C26.4069 4.31104 26.4637 4.47848 26.4865 4.65211C26.5093 4.82574 26.4977 5.00216 26.4524 5.1713L26.2804 5.81397C26.2358 5.98383 26.158 6.1432 26.0517 6.28294C25.9453 6.42267 25.8124 6.54002 25.6605 6.62823C25.5086 6.71645 25.3409 6.77379 25.1668 6.79697C24.9927 6.82016 24.8157 6.80872 24.6461 6.76332C24.4764 6.71792 24.3174 6.63946 24.1782 6.53243C24.039 6.42541 23.9222 6.29193 23.8347 6.13966C23.7472 5.98739 23.6907 5.81934 23.6683 5.64515C23.6459 5.47096 23.6582 5.29407 23.7044 5.12464L23.8777 4.48064C23.9693 4.13931 24.1926 3.8483 24.4986 3.67154C24.8046 3.49478 25.1683 3.44674 25.5097 3.53797Z" fill="#D0841B"/>
<path fill-rule="evenodd" clip-rule="evenodd" d="M25.999 14.0846H7.33237V27.418H25.999V14.0846ZM18.2463 17.2708C17.7883 16.9335 17.2345 16.7515 16.6657 16.7513C16.0787 16.7513 15.5081 16.945 15.0424 17.3024C14.5767 17.6597 14.242 18.1608 14.09 18.7278C13.9381 19.2948 13.9775 19.8961 14.2021 20.4384C14.4267 20.9807 14.824 21.4338 15.3324 21.7273V23.418L15.3417 23.574C15.3818 23.9114 15.5493 24.2208 15.8099 24.4389C16.0705 24.6571 16.4046 24.7674 16.7438 24.7475C17.0831 24.7276 17.4019 24.5789 17.6352 24.3318C17.8685 24.0847 17.9987 23.7578 17.999 23.418V21.7273L18.1777 21.614C18.6461 21.2913 18.999 20.8273 19.185 20.2898C19.3709 19.7522 19.3802 19.1693 19.2113 18.6262C19.0424 18.0831 18.7043 17.6081 18.2463 17.2708Z" fill="#F4E5D0"/>
</g>
</g>
</g>
<defs>
<clipPath id="clip0_2854_8094">
<rect width="32" height="32" fill="white" transform="translate(0.666679 0.751953)"/>
</clipPath>
</defs>
</svg>
