<svg width="28" height="28" viewBox="0 0 28 28" fill="none" xmlns="http://www.w3.org/2000/svg">
<path fill-rule="evenodd" clip-rule="evenodd" d="M3.33464 14.0013C3.33464 11.1723 4.45844 8.45922 6.45883 6.45883C8.45922 4.45844 11.1723 3.33464 14.0013 3.33464C16.8303 3.33464 19.5434 4.45844 21.5438 6.45883C23.5442 8.45922 24.668 11.1723 24.668 14.0013C24.668 16.8303 23.5442 19.5434 21.5438 21.5438C19.5434 23.5442 16.8303 24.668 14.0013 24.668C11.1723 24.668 8.45922 23.5442 6.45883 21.5438C4.45844 19.5434 3.33464 16.8303 3.33464 14.0013ZM14.0013 0.667969C6.6373 0.667969 0.667969 6.6373 0.667969 14.0013C0.667969 21.3653 6.6373 27.3346 14.0013 27.3346C21.3653 27.3346 27.3346 21.3653 27.3346 14.0013C27.3346 6.6373 21.3653 0.667969 14.0013 0.667969ZM12.0013 12.0013C12.0014 11.6573 12.0903 11.3191 12.2593 11.0195C12.4283 10.7198 12.6717 10.4689 12.9661 10.2908C13.2604 10.1127 13.5957 10.0136 13.9396 10.003C14.2834 9.99235 14.6242 10.0706 14.929 10.2302C15.2338 10.3897 15.4922 10.6252 15.6794 10.9139C15.8666 11.2025 15.9761 11.5346 15.9974 11.8779C16.0188 12.2213 15.9512 12.5643 15.8012 12.8739C15.6513 13.1835 15.424 13.4492 15.1413 13.6453C14.934 13.7893 14.7719 13.9891 14.6737 14.2216C14.5755 14.4541 14.5453 14.7097 14.5866 14.9586L15.0946 18.0013H12.908L13.4146 14.9586C13.4561 14.7098 13.4261 14.4543 13.3282 14.2218C13.2302 13.9894 13.0683 13.7894 12.8613 13.6453C12.5956 13.4614 12.3785 13.2157 12.2287 12.9293C12.0789 12.6429 12.0008 12.3245 12.0013 12.0013ZM14.0013 7.33464C13.083 7.33448 12.1851 7.60524 11.42 8.11301C10.6549 8.62079 10.0566 9.34301 9.7 10.1892C9.34344 11.0355 9.24445 11.9681 9.41545 12.8703C9.58644 13.7725 10.0198 14.6042 10.6613 15.2613L10.02 19.1146C9.98801 19.3057 9.99806 19.5014 10.0494 19.6881C10.1007 19.8749 10.1922 20.0482 10.3173 20.196C10.4424 20.3438 10.5982 20.4627 10.7739 20.5442C10.9496 20.6257 11.141 20.6679 11.3346 20.668H16.668C16.8615 20.6679 17.0527 20.6257 17.2283 20.5442C17.4039 20.4628 17.5596 20.3441 17.6847 20.1964C17.8098 20.0488 17.9013 19.8756 17.9527 19.689C18.0042 19.5024 18.0144 19.3069 17.9826 19.116L17.3413 15.2613C17.9828 14.6042 18.4162 13.7725 18.5872 12.8703C18.7582 11.9681 18.6592 11.0355 18.3026 10.1892C17.946 9.34301 17.3477 8.62079 16.5826 8.11301C15.8175 7.60524 14.9196 7.33448 14.0013 7.33464Z" fill="#212121"/>
</svg>
