<svg width="24" height="24" viewBox="0 0 24 24" fill="none" xmlns="http://www.w3.org/2000/svg">
<path d="M15.7489 21C15.7489 21.1989 15.6699 21.3897 15.5292 21.5303C15.3886 21.671 15.1978 21.75 14.9989 21.75H8.99891C8.8 21.75 8.60924 21.671 8.46858 21.5303C8.32793 21.3897 8.24891 21.1989 8.24891 21C8.24891 20.8011 8.32793 20.6103 8.46858 20.4697C8.60924 20.329 8.8 20.25 8.99891 20.25H14.9989C15.1978 20.25 15.3886 20.329 15.5292 20.4697C15.6699 20.6103 15.7489 20.8011 15.7489 21ZM20.7936 16.4944C20.2724 15.5981 19.4989 13.0622 19.4989 9.75C19.4989 7.76088 18.7087 5.85322 17.3022 4.4467C15.8957 3.04018 13.988 2.25 11.9989 2.25C10.0098 2.25 8.10214 3.04018 6.69561 4.4467C5.28909 5.85322 4.49891 7.76088 4.49891 9.75C4.49891 13.0631 3.72454 15.5981 3.20423 16.4944C3.07135 16.7222 3.00091 16.9811 3.00001 17.2449C2.9991 17.5086 3.06776 17.768 3.19907 17.9967C3.33037 18.2255 3.51968 18.4156 3.74789 18.5478C3.9761 18.6801 4.23515 18.7498 4.49891 18.75H19.4989C19.7626 18.7496 20.0215 18.6798 20.2496 18.5475C20.4777 18.4151 20.6669 18.225 20.7981 17.9963C20.9292 17.7676 20.9978 17.5083 20.9969 17.2446C20.9959 16.9809 20.9255 16.7222 20.7927 16.4944H20.7936Z" fill="#212121"/>
</svg>
