<svg width="32" height="33" viewBox="0 0 32 33" fill="none" xmlns="http://www.w3.org/2000/svg">
<g id="Frame">
<path id="Vector" opacity="0.2" d="M30 12.0391L11.5737 23.0391C10.8294 23.4725 9.96503 23.6541 9.1092 23.5568C8.25338 23.4595 7.45182 23.0886 6.82375 22.4991L2.31625 18.0841C2.19502 17.9705 2.10402 17.8284 2.05147 17.6708C1.99892 17.5132 1.98647 17.3449 2.01525 17.1813C2.04404 17.0177 2.11314 16.8638 2.21633 16.7335C2.31951 16.6033 2.45352 16.5008 2.60625 16.4354L3 16.2429L6.97375 17.5841L11 15.1479L7.33125 11.5841C7.20646 11.4718 7.11195 11.3299 7.05642 11.1715C7.0009 11.0131 6.98616 10.8432 7.01356 10.6776C7.04096 10.5119 7.10961 10.3559 7.21319 10.2238C7.31677 10.0917 7.45194 9.98775 7.60625 9.92162L8.5 9.58412L15.6912 12.2304L22.5462 8.13662C23.3691 7.65238 24.3381 7.47845 25.278 7.64626C26.2179 7.81407 27.0668 8.31255 27.6712 9.05162L30 12.0391Z" fill="#D0841B"/>
<path id="Vector_2" d="M21.9997 27.5842C21.9997 27.8494 21.8944 28.1038 21.7068 28.2913C21.5193 28.4789 21.265 28.5842 20.9997 28.5842H2.99974C2.73452 28.5842 2.48017 28.4789 2.29263 28.2913C2.10509 28.1038 1.99974 27.8494 1.99974 27.5842C1.99974 27.319 2.10509 27.0647 2.29263 26.8771C2.48017 26.6896 2.73452 26.5842 2.99974 26.5842H20.9997C21.265 26.5842 21.5193 26.6896 21.7068 26.8771C21.8944 27.0647 21.9997 27.319 21.9997 27.5842ZM30.9822 12.228C30.9561 12.3672 30.9006 12.4992 30.8196 12.6153C30.7386 12.7315 30.6338 12.8291 30.5122 12.9017L12.086 23.9017C11.3179 24.3521 10.4439 24.5903 9.55349 24.5917C8.28513 24.5903 7.06526 24.1042 6.14349 23.233L6.12849 23.218L1.62474 18.8092C1.38645 18.5829 1.20759 18.3014 1.10397 17.9896C1.00036 17.6777 0.975182 17.3452 1.03067 17.0213C1.08615 16.6974 1.22059 16.3921 1.4221 16.1326C1.62361 15.873 1.88597 15.667 2.18599 15.533L2.56099 15.3492C2.79781 15.233 3.07098 15.215 3.32099 15.2992L6.85349 16.4917L9.37474 14.9667L6.64599 12.318C6.40059 12.0919 6.21565 11.808 6.10803 11.4922C6.0004 11.1763 5.97351 10.8386 6.02979 10.5097C6.08608 10.1808 6.22375 9.87122 6.43028 9.60915C6.63681 9.34708 6.90562 9.14084 7.21224 9.00922L7.25224 8.99297L8.14599 8.65422C8.37133 8.5702 8.6194 8.5702 8.84474 8.65422L15.5872 11.1317L22.0335 7.28422C23.0608 6.67283 24.2737 6.45157 25.4507 6.66089C26.6277 6.87022 27.69 7.49613 28.4435 8.42422L28.4585 8.44297L30.7885 11.4292C30.8755 11.541 30.9378 11.6701 30.9712 11.8078C31.0046 11.9455 31.0084 12.0887 30.9822 12.228ZM28.5147 11.7655L26.8897 9.68172C26.4375 9.12843 25.8017 8.75576 25.0979 8.63144C24.3942 8.50712 23.6692 8.63939 23.0547 9.00422L16.2047 13.0942C16.0764 13.1703 15.9329 13.2169 15.7844 13.2308C15.6358 13.2446 15.4861 13.2253 15.346 13.1742L8.49974 10.6567L7.99974 10.848L8.02599 10.873L11.696 14.4342C11.8056 14.5407 11.8893 14.6709 11.9408 14.8148C11.9922 14.9587 12.01 15.1125 11.9927 15.2644C11.9755 15.4162 11.9236 15.5621 11.8412 15.6908C11.7588 15.8195 11.6479 15.9275 11.5172 16.0067L7.49099 18.443C7.36644 18.5182 7.22697 18.5653 7.08232 18.5811C6.93767 18.5969 6.79132 18.5809 6.65349 18.5342L3.06974 17.3255L3.04599 17.338L2.99974 17.3592C3.00576 17.3635 3.01122 17.3686 3.01599 17.3742L7.51599 21.7817C7.98561 22.223 8.5856 22.5003 9.22605 22.572C9.8665 22.6436 10.5129 22.5058 11.0685 22.1792L28.5147 11.7655Z" fill="#D0841B"/>
</g>
</svg>
