<svg width="32" height="33" viewBox="0 0 32 33" fill="none" xmlns="http://www.w3.org/2000/svg">
<g id="Frame" clip-path="url(#clip0_2854_8087)">
<g id="timeline_line">
<path id="Vector" d="M17.3333 6.08529C17.3333 5.73166 17.1929 5.39253 16.9428 5.14248C16.6928 4.89243 16.3536 4.75195 16 4.75195C15.6464 4.75195 15.3072 4.89243 15.0572 5.14248C14.8071 5.39253 14.6667 5.73166 14.6667 6.08529V28.752C14.6667 29.1056 14.8071 29.4447 15.0572 29.6948C15.3072 29.9448 15.6464 30.0853 16 30.0853C16.3536 30.0853 16.6928 29.9448 16.9428 29.6948C17.1929 29.4447 17.3333 29.1056 17.3333 28.752V6.08529ZM9.33333 6.08529H13.3333V8.75195H9.33333V10.0853H13.3333V12.752H9.33333C8.62609 12.752 7.94781 12.471 7.44771 11.9709C6.94762 11.4708 6.66666 10.7925 6.66666 10.0853V8.75195C6.66666 8.04471 6.94762 7.36643 7.44771 6.86633C7.94781 6.36624 8.62609 6.08529 9.33333 6.08529ZM24 10.0853H18.6667V12.752H24C24.7072 12.752 25.3855 12.471 25.8856 11.9709C26.3857 11.4708 26.6667 10.7925 26.6667 10.0853V8.75195C26.6667 8.04471 26.3857 7.36643 25.8856 6.86633C25.3855 6.36624 24.7072 6.08529 24 6.08529H18.6667V8.75195H24V10.0853ZM13.3333 14.0853H6.66666C5.95942 14.0853 5.28114 14.3662 4.78105 14.8663C4.28095 15.3664 4 16.0447 4 16.752V18.0853C4 18.7925 4.28095 19.4708 4.78105 19.9709C5.28114 20.471 5.95942 20.752 6.66666 20.752H13.3333V18.0853H6.66666V16.752H13.3333V14.0853ZM18.6667 14.0853V16.752H21.3333V18.0853H18.6667V20.752H21.3333C22.0406 20.752 22.7189 20.471 23.219 19.9709C23.719 19.4708 24 18.7925 24 18.0853V16.752C24 16.0447 23.719 15.3664 23.219 14.8663C22.7189 14.3662 22.0406 14.0853 21.3333 14.0853H18.6667ZM13.3333 22.0853H10.6667C9.95942 22.0853 9.28114 22.3662 8.78105 22.8663C8.28095 23.3664 8 24.0447 8 24.752V26.0853C8 26.7925 8.28095 27.4708 8.78105 27.9709C9.28114 28.471 9.95942 28.752 10.6667 28.752H13.3333V26.0853H10.6667V24.752H13.3333V22.0853ZM18.6667 22.0853V24.752H25.3333V26.0853H18.6667V28.752H25.3333C26.0406 28.752 26.7189 28.471 27.219 27.9709C27.719 27.4708 28 26.7925 28 26.0853V24.752C28 24.0447 27.719 23.3664 27.219 22.8663C26.7189 22.3662 26.0406 22.0853 25.3333 22.0853H18.6667Z" fill="#D0841B"/>
</g>
</g>
<defs>
<clipPath id="clip0_2854_8087">
<rect width="32" height="32" fill="white" transform="translate(-1.90735e-06 0.751953)"/>
</clipPath>
</defs>
</svg>
