<svg width="25" height="24" viewBox="0 0 25 24" fill="none" xmlns="http://www.w3.org/2000/svg">
<g clip-path="url(#clip0_2854_8222)">
<path d="M12.6669 2C14.3244 2 15.9409 2.51481 17.2931 3.47328C18.6454 4.43175 19.6665 5.78655 20.2154 7.35047C20.7644 8.91439 20.814 10.6102 20.3575 12.2035C19.9009 13.7969 18.9608 15.2091 17.6669 16.245V20.855C17.6669 21.0327 17.6239 21.2078 17.5414 21.3652C17.459 21.5227 17.3396 21.6578 17.1936 21.759C17.0475 21.8602 16.8791 21.9246 16.7027 21.9465C16.5264 21.9685 16.3473 21.9474 16.1809 21.885L12.6669 20.569L9.15293 21.887C8.98643 21.9494 8.8073 21.9705 8.63086 21.9485C8.45443 21.9265 8.28596 21.8621 8.13988 21.7607C7.99379 21.6594 7.87446 21.5241 7.79209 21.3666C7.70972 21.209 7.66677 21.0338 7.66692 20.856V16.246C6.37267 15.2102 5.43215 13.7979 4.97538 12.2044C4.5186 10.6109 4.56812 8.91479 5.11711 7.35064C5.66609 5.78648 6.68741 4.43148 8.0399 3.47297C9.39238 2.51445 11.0092 1.99974 12.6669 2ZM12.6669 4C11.0756 4 9.5495 4.63214 8.42428 5.75736C7.29907 6.88258 6.66692 8.4087 6.66692 10C6.66692 11.5913 7.29907 13.1174 8.42428 14.2426C9.5495 15.3679 11.0756 16 12.6669 16C14.2582 16 15.7843 15.3679 16.9096 14.2426C18.0348 13.1174 18.6669 11.5913 18.6669 10C18.6669 8.4087 18.0348 6.88258 16.9096 5.75736C15.7843 4.63214 14.2582 4 12.6669 4ZM12.6669 6C13.7278 6 14.7452 6.42143 15.4954 7.17157C16.2455 7.92172 16.6669 8.93913 16.6669 10C16.6669 11.0609 16.2455 12.0783 15.4954 12.8284C14.7452 13.5786 13.7278 14 12.6669 14C11.6061 14 10.5886 13.5786 9.8385 12.8284C9.08835 12.0783 8.66692 11.0609 8.66692 10C8.66692 8.93913 9.08835 7.92172 9.8385 7.17157C10.5886 6.42143 11.6061 6 12.6669 6Z" fill="#9B9B9B"/>
</g>
<defs>
<clipPath id="clip0_2854_8222">
<rect width="24" height="24" fill="white" transform="translate(0.666649)"/>
</clipPath>
</defs>
</svg>
